<?xml version="1.0" encoding="utf-8"?>
<!-- Generator: Adobe Illustrator 16.0.0, SVG Export Plug-In . SVG Version: 6.00 Build 0)  -->
<!DOCTYPE svg PUBLIC "-//W3C//DTD SVG 1.1//EN" "http://www.w3.org/Graphics/SVG/1.1/DTD/svg11.dtd">
<svg version="1.1" id="Слой_1" xmlns="http://www.w3.org/2000/svg" xmlns:xlink="http://www.w3.org/1999/xlink" x="0px" y="0px"
	 width="35px" height="35px" viewBox="0 0 35 35" enable-background="new 0 0 35 35" xml:space="preserve">
<g>
	<g>
		<path fill="#FFFFFF" d="M6.077,3.195v7.68h23.078v-7.68H6.077z M27.234,9.498H7.995V4.534h19.24V9.498z"/>
	</g>
	<g>
		<path fill="#FFFFFF" d="M6.077,31.806h23.078v-19.97H6.077V31.806z M11.611,29.667H8.485V26.54h3.125V29.667z M11.611,25.179
			H8.485v-3.123h3.125V25.179z M11.611,20.474H8.485v-3.127h3.125V20.474z M21.742,29.667h-3.125V26.54h3.125V29.667z
			 M21.742,25.179h-3.125v-3.123h3.125V25.179z M21.742,20.474h-3.125v-3.127h3.125V20.474z M26.809,29.667h-3.127v-7.611h3.127
			V29.667z M26.809,20.474h-3.127v-3.127h3.127V20.474z M23.672,13.782h3.146v1.768h-3.146V13.782z M18.607,13.782h3.145v1.768
			h-3.145V13.782z M13.542,13.782h3.144v1.768h-3.144V13.782z M13.542,17.347h3.125v3.127h-3.125V17.347z M13.542,22.056h3.125
			v3.123h-3.125V22.056z M13.542,26.54h3.125v3.127h-3.125V26.54z M8.476,13.782h3.143v1.768H8.476V13.782z"/>
	</g>
	<g>
		<rect x="22.646" y="5.195" fill="#FFFFFF" width="1.324" height="0.359"/>
	</g>
	<g>
		<rect x="24.57" y="5.195" fill="#FFFFFF" width="1.325" height="0.359"/>
	</g>
	<g>
		<rect x="22.646" y="6.88" fill="#FFFFFF" width="1.324" height="0.359"/>
	</g>
	<g>
		<rect x="24.57" y="6.88" fill="#FFFFFF" width="1.325" height="0.359"/>
	</g>
	<g>
		<rect x="22.646" y="8.528" fill="#FFFFFF" width="1.324" height="0.356"/>
	</g>
	<g>
		<rect x="24.57" y="8.528" fill="#FFFFFF" width="1.325" height="0.356"/>
	</g>
	<g>
		<rect x="23.611" y="5.656" fill="#FFFFFF" width="0.359" height="1.123"/>
	</g>
	<g>
		<rect x="25.536" y="5.656" fill="#FFFFFF" width="0.359" height="1.123"/>
	</g>
	<g>
		<rect x="22.646" y="7.337" fill="#FFFFFF" width="0.361" height="1.119"/>
	</g>
	<g>
		<rect x="25.536" y="7.337" fill="#FFFFFF" width="0.359" height="1.119"/>
	</g>
	<g>
		<rect x="21.623" y="7.156" fill="#FFFFFF" width="0.359" height="1.729"/>
	</g>
	<g>
		<rect x="21.623" y="5.195" fill="#FFFFFF" width="0.359" height="1.734"/>
	</g>
</g>
</svg>
