<?xml version="1.0" encoding="utf-8"?>
<!-- Generator: Adobe Illustrator 16.0.0, SVG Export Plug-In . SVG Version: 6.00 Build 0)  -->
<!DOCTYPE svg PUBLIC "-//W3C//DTD SVG 1.1//EN" "http://www.w3.org/Graphics/SVG/1.1/DTD/svg11.dtd">
<svg version="1.1" id="Слой_1" xmlns="http://www.w3.org/2000/svg" xmlns:xlink="http://www.w3.org/1999/xlink" x="0px" y="0px"
	 width="35px" height="35px" viewBox="0 0 35 35" enable-background="new 0 0 35 35" xml:space="preserve">
<g>
	<path fill="#FFFFFF" d="M17.497,4.869c-4.746,0-8.601,3.851-8.601,8.602c0,4.746,3.854,8.603,8.601,8.603
		c4.751,0,8.604-3.857,8.604-8.603C26.102,8.719,22.248,4.869,17.497,4.869z"/>
	<path fill="#FFFFFF" d="M29.221,15.802c0.155-0.783,1.153-1.506,1.153-2.332c0-0.831-0.998-1.553-1.153-2.334
		c-0.163-0.806,0.482-1.852,0.174-2.596C29.078,7.789,27.882,7.5,27.436,6.83c-0.451-0.676-0.26-1.893-0.837-2.461
		c-0.565-0.574-1.782-0.381-2.461-0.837c-0.673-0.446-0.956-1.646-1.714-1.956c-0.736-0.307-1.785,0.334-2.591,0.174
		c-0.78-0.156-1.508-1.15-2.336-1.15c-0.826,0-1.551,0.994-2.329,1.15c-0.809,0.16-1.854-0.48-2.596-0.174
		c-0.758,0.311-1.041,1.51-1.712,1.956c-0.678,0.456-1.887,0.263-2.466,0.837C7.823,4.937,8.015,6.154,7.563,6.83
		C7.111,7.5,5.913,7.789,5.602,8.541c-0.306,0.744,0.337,1.79,0.171,2.596c-0.15,0.781-1.147,1.503-1.147,2.334
		c0,0.826,0.997,1.548,1.147,2.332c0.166,0.805-0.477,1.852-0.171,2.596c0.312,0.758,1.51,1.039,1.962,1.709
		c0.451,0.678,0.26,1.893,0.831,2.467c0.579,0.57,1.788,0.379,2.466,0.834c0.671,0.445,0.954,1.646,1.712,1.957
		c0.742,0.309,1.787-0.33,2.596-0.17c0.778,0.152,1.503,1.148,2.329,1.148c0.828,0,1.556-0.996,2.336-1.148
		c0.806-0.16,1.854,0.479,2.591,0.17c0.753-0.311,1.041-1.512,1.714-1.957c0.679-0.455,1.89-0.264,2.461-0.834
		c0.577-0.574,0.383-1.789,0.837-2.467c0.446-0.67,1.643-0.951,1.959-1.709C29.703,17.653,29.058,16.612,29.221,15.802z
		 M17.497,23.917c-5.767,0-10.441-4.676-10.441-10.447c0-5.766,4.675-10.443,10.441-10.443c5.769,0,10.451,4.678,10.451,10.443
		C27.948,19.241,23.266,23.917,17.497,23.917z"/>
	<path fill="#FFFFFF" d="M20.116,27.368c-0.063,0-0.12,0.004-0.171,0.012c-0.232,0.049-0.528,0.258-0.813,0.461
		c-0.467,0.33-0.995,0.701-1.635,0.701c-0.638,0-1.171-0.371-1.627-0.701c-0.283-0.203-0.582-0.412-0.814-0.461
		c-0.051-0.008-0.109-0.012-0.176-0.012c-0.227,0-0.502,0.063-0.793,0.127c-0.084,0.018-0.168,0.041-0.25,0.057v6.85l3.695-2.654
		l3.632,2.654v-6.85c-0.084-0.016-0.166-0.039-0.25-0.055C20.621,27.431,20.346,27.368,20.116,27.368z"/>
</g>
</svg>
