<?xml version="1.0" encoding="utf-8"?>
<!-- Generator: Adobe Illustrator 16.0.0, SVG Export Plug-In . SVG Version: 6.00 Build 0)  -->
<!DOCTYPE svg PUBLIC "-//W3C//DTD SVG 1.1//EN" "http://www.w3.org/Graphics/SVG/1.1/DTD/svg11.dtd">
<svg version="1.1" id="Слой_1" xmlns="http://www.w3.org/2000/svg" xmlns:xlink="http://www.w3.org/1999/xlink" x="0px" y="0px"
	 width="35px" height="35px" viewBox="0 0 35 35" enable-background="new 0 0 35 35" xml:space="preserve">
<g>
	<path fill="#FFFFFF" d="M17.501,5.816C15.513,7.122,11.858,9.019,7.094,9.23C7.053,14.838,8.13,26.57,17.501,29.797
		C26.873,26.57,27.949,14.838,27.908,9.23C23.144,9.019,19.486,7.122,17.501,5.816z"/>
	<path fill="#FFFFFF" d="M31.377,5.658c-8.368,0.869-13.876-4.303-13.876-4.303s-5.51,5.172-13.878,4.303
		c0,0-2.584,23.348,13.878,27.987C33.964,29.006,31.377,5.658,31.377,5.658z M17.732,32.025l-0.231,0.076l-0.231-0.076
		C5.745,28.271,4.836,13.946,4.98,7.96l0.018-0.714l0.717-0.008c5.38-0.057,9.428-2.323,11.363-3.675l0.423-0.296l0.425,0.296
		c1.935,1.352,5.981,3.618,11.36,3.675l0.718,0.008l0.017,0.714C30.166,13.946,29.257,28.271,17.732,32.025z"/>
</g>
</svg>
