<?xml version="1.0" encoding="utf-8"?>
<!-- Generator: Adobe Illustrator 16.0.0, SVG Export Plug-In . SVG Version: 6.00 Build 0)  -->
<!DOCTYPE svg PUBLIC "-//W3C//DTD SVG 1.1//EN" "http://www.w3.org/Graphics/SVG/1.1/DTD/svg11.dtd">
<svg version="1.1" id="Слой_1" xmlns="http://www.w3.org/2000/svg" xmlns:xlink="http://www.w3.org/1999/xlink" x="0px" y="0px"
	 width="35px" height="35px" viewBox="0 0 35 35" enable-background="new 0 0 35 35" xml:space="preserve">
<g>
	<path fill="#FFFFFF" d="M28.013,18.053c3.056-3.055,3.056-8.008,0-11.065s-8.011-3.057-11.066,0
		c-2.438,2.441-2.929,6.088-1.477,9.014L5.294,26.178l0.174,1.236l10.525-10.52c0.092,0.135,0.192,0.271,0.295,0.406L5.556,28.035
		l0.176,1.229l3.093,0.441l0.907-0.902L9.73,26.492h2.266v-2.266h2.309l0.006-0.004l-0.001-2.311h2.311l2.382-2.381
		C21.93,20.982,25.574,20.492,28.013,18.053z M26.403,8.597c0.65,0.652,0.65,1.705,0,2.354c-0.65,0.65-1.703,0.65-2.353,0.002
		c-0.65-0.65-0.65-1.703,0-2.355C24.7,7.951,25.753,7.951,26.403,8.597z"/>
</g>
</svg>
