<?xml version="1.0" encoding="utf-8"?>
<!-- Generator: Adobe Illustrator 16.0.0, SVG Export Plug-In . SVG Version: 6.00 Build 0)  -->
<!DOCTYPE svg PUBLIC "-//W3C//DTD SVG 1.1//EN" "http://www.w3.org/Graphics/SVG/1.1/DTD/svg11.dtd">
<svg version="1.1" id="Слой_1" xmlns="http://www.w3.org/2000/svg" xmlns:xlink="http://www.w3.org/1999/xlink" x="0px" y="0px"
	 width="65px" height="65px" viewBox="0 0 65 65" enable-background="new 0 0 65 65" xml:space="preserve">
<g>
	<path fill="#FFFFFF" d="M60.402,50.642L37.164,10.395c-1.451-2.517-3.365-3.772-5.28-3.772s-3.829,1.256-5.28,3.772L3.365,50.642
		c-2.905,5.032-0.528,9.149,5.281,9.149h46.475C60.93,59.791,63.308,55.674,60.402,50.642z M57.194,54.885
		c-0.069,0.094-0.661,0.477-2.073,0.477H8.646c-1.411,0-2.003-0.383-2.07-0.471c-0.045-0.107-0.079-0.809,0.626-2.033L30.44,12.61
		c0.705-1.223,1.333-1.543,1.438-1.558c0.117,0.015,0.743,0.335,1.447,1.558l23.239,40.247
		C57.272,54.082,57.236,54.783,57.194,54.885z"/>
	<circle fill="#FFFFFF" cx="31.884" cy="46.813" r="3.314"/>
	<rect x="28.856" y="26.911" fill="#FFFFFF" width="6.056" height="14.083"/>
</g>
</svg>
