<?xml version="1.0" encoding="utf-8"?>
<!-- Generator: Adobe Illustrator 16.0.0, SVG Export Plug-In . SVG Version: 6.00 Build 0)  -->
<!DOCTYPE svg PUBLIC "-//W3C//DTD SVG 1.1//EN" "http://www.w3.org/Graphics/SVG/1.1/DTD/svg11.dtd">
<svg version="1.1" id="Слой_1" xmlns="http://www.w3.org/2000/svg" xmlns:xlink="http://www.w3.org/1999/xlink" x="0px" y="0px"
	 width="20px" height="20px" viewBox="0 0 20 20" enable-background="new 0 0 20 20" xml:space="preserve">
<g>
	<path fill="#252A2F" d="M10.422,9.067L8.237,6.88c-0.374-0.374-0.982-0.374-1.355,0C6.503,7.256,6.506,7.862,6.879,8.237
		l2.387,2.387c0.015,0.013,0.028,0.025,0.041,0.037c0.177,0.198,0.434,0.325,0.718,0.325h5.708c0.529,0,0.957-0.431,0.957-0.96
		c0-0.53-0.428-0.958-0.957-0.958H10.422z"/>
	<path fill="#252A2F" d="M3.284,3.283c-3.711,3.71-3.712,9.725-0.001,13.436c3.71,3.709,9.723,3.709,13.434-0.002
		c3.711-3.709,3.711-9.725,0-13.434C13.006-0.427,6.993-0.427,3.284,3.283z M16.025,4.679l0.5-0.498
		c1.352,1.515,2.084,3.385,2.199,5.288L18.01,9.47c-0.17-0.001-0.311,0.139-0.311,0.311v0.413c0,0.172,0.141,0.311,0.311,0.312
		h0.717c-0.109,1.906-0.84,3.783-2.189,5.3l-0.512-0.511c-0.119-0.121-0.316-0.121-0.438,0l-0.295,0.293
		c-0.121,0.121-0.121,0.317,0,0.439l0.512,0.51c-1.52,1.353-3.396,2.082-5.299,2.19l-0.002-0.716c0-0.173-0.138-0.312-0.31-0.312
		H9.781c-0.174,0-0.311,0.139-0.311,0.312v0.714c-1.905-0.115-3.774-0.847-5.288-2.199l0.498-0.498c0.121-0.123,0.12-0.319,0-0.44
		l-0.293-0.293c-0.122-0.121-0.316-0.121-0.44,0l-0.495,0.495c-1.344-1.516-2.069-3.385-2.179-5.285l0.691,0
		c0.17,0,0.309-0.139,0.311-0.312L2.273,9.78c0-0.172-0.139-0.312-0.309-0.311l-0.69-0.001c0.115-1.896,0.845-3.762,2.189-5.273
		l0.483,0.483c0.122,0.122,0.318,0.122,0.44,0L4.68,4.387c0.12-0.122,0.121-0.318,0-0.44L4.196,3.464
		c1.51-1.345,3.378-2.073,5.274-2.189v0.688c0,0.172,0.137,0.311,0.309,0.311h0.415c0.171,0,0.31-0.139,0.31-0.311v-0.69
		c1.9,0.109,3.77,0.835,5.285,2.178l-0.494,0.496c-0.123,0.122-0.123,0.317,0,0.44l0.293,0.292
		C15.709,4.801,15.904,4.801,16.025,4.679z"/>
</g>
</svg>
