<?xml version="1.0" encoding="utf-8"?>
<!-- Generator: Adobe Illustrator 16.0.0, SVG Export Plug-In . SVG Version: 6.00 Build 0)  -->
<!DOCTYPE svg PUBLIC "-//W3C//DTD SVG 1.1//EN" "http://www.w3.org/Graphics/SVG/1.1/DTD/svg11.dtd">
<svg version="1.1" id="Слой_1" xmlns="http://www.w3.org/2000/svg" xmlns:xlink="http://www.w3.org/1999/xlink" x="0px" y="0px"
	 width="25px" height="25px" viewBox="0 0 25 25" enable-background="new 0 0 25 25" xml:space="preserve">
<g opacity="0.5">
	<path fill-rule="evenodd" clip-rule="evenodd" fill="#666666" d="M12.277,2.146c2.82,0,5.375,1.147,7.225,2.996l0.002,0.002
		l0.003-0.002C21.355,6.99,22.5,9.548,22.5,12.369c0,2.821-1.145,5.377-2.993,7.229l-0.063,0.059
		c-1.843,1.813-4.375,2.936-7.166,2.936c-2.817,0-5.373-1.148-7.225-2.994v-0.002l-0.002,0.002
		c-1.848-1.852-2.993-4.408-2.993-7.229c0-2.82,1.146-5.379,2.993-7.227l0.061-0.059C6.957,3.269,9.49,2.146,12.277,2.146
		L12.277,2.146z M14.967,8.075l-2.689,2.688L9.591,8.075c-0.443-0.444-1.161-0.444-1.604,0c-0.443,0.443-0.443,1.163,0,1.607
		l2.687,2.687l-2.687,2.686c-0.443,0.443-0.443,1.164,0,1.607s1.161,0.443,1.604,0l2.687-2.686l2.689,2.686
		c0.443,0.443,1.161,0.443,1.604,0c0.443-0.443,0.443-1.16,0-1.604l-2.686-2.69l2.686-2.687c0.443-0.444,0.443-1.164,0-1.607
		C16.128,7.63,15.41,7.63,14.967,8.075L14.967,8.075z M17.902,6.747c-1.438-1.438-3.429-2.327-5.625-2.327
		c-2.169,0-4.138,0.867-5.572,2.275L6.658,6.747c-1.441,1.438-2.33,3.429-2.33,5.622c0,2.194,0.889,4.184,2.33,5.622l-0.003,0.004
		c1.438,1.434,3.426,2.324,5.622,2.324c2.172,0,4.141-0.869,5.574-2.275l0.047-0.053c1.438-1.438,2.331-3.428,2.331-5.622
		c0-2.193-0.894-4.185-2.331-5.622H17.902z"/>
</g>
</svg>
