<?xml version="1.0" encoding="utf-8"?>
<!-- Generator: Adobe Illustrator 16.0.0, SVG Export Plug-In . SVG Version: 6.00 Build 0)  -->
<!DOCTYPE svg PUBLIC "-//W3C//DTD SVG 1.1//EN" "http://www.w3.org/Graphics/SVG/1.1/DTD/svg11.dtd">
<svg version="1.1" id="Слой_1" xmlns="http://www.w3.org/2000/svg" xmlns:xlink="http://www.w3.org/1999/xlink" x="0px" y="0px"
	 width="60px" height="55px" viewBox="0 0 60 55" enable-background="new 0 0 60 55" xml:space="preserve">
<g>
	<g>
		<g>
			<g>
				<rect x="24.017" y="31.981" fill="#00A99D" width="1.139" height="17.976"/>
			</g>
			<g>
				<rect x="26.141" y="31.981" fill="#00A99D" width="1.139" height="17.976"/>
			</g>
			<g>
				<rect x="28.266" y="21.474" fill="#00A99D" width="1.139" height="28.483"/>
			</g>
			<g>
				<rect x="30.39" y="21.474" fill="#00A99D" width="1.14" height="28.483"/>
			</g>
			<g>
				<rect x="32.514" y="8.182" fill="#00A99D" width="1.139" height="41.775"/>
			</g>
			<g>
				<rect x="34.639" y="2.486" fill="#00A99D" width="1.139" height="47.471"/>
			</g>
			<g>
				<rect x="36.764" y="8.182" fill="#00A99D" width="1.139" height="41.775"/>
			</g>
			<g>
				<rect x="38.887" y="21.474" fill="#00A99D" width="1.139" height="28.483"/>
			</g>
			<g>
				<rect x="41.012" y="21.474" fill="#00A99D" width="1.139" height="28.483"/>
			</g>
			<g>
				<rect x="43.137" y="31.981" fill="#00A99D" width="1.139" height="17.976"/>
			</g>
			<g>
				<rect x="45.261" y="31.981" fill="#00A99D" width="1.14" height="17.976"/>
			</g>
		</g>
		<g>
			<rect x="21.41" y="50.78" fill="#00A99D" width="27.597" height="1.14"/>
		</g>
		<g>
			<path fill="#00A99D" d="M48.064,49.108l-0.705-0.896c4.791-3.766,7.565-9.414,7.612-15.498
				c0.075-9.656-6.749-17.946-16.226-19.711l0.209-1.12c10.02,1.867,17.234,10.631,17.156,20.839
				C56.062,39.156,53.129,45.128,48.064,49.108z"/>
		</g>
		<g>
			<path fill="#00A99D" d="M22.52,49.437c-5.359-3.994-8.527-10.364-8.476-17.038c0.079-10.17,7.396-18.816,17.399-20.559
				l0.195,1.122c-9.459,1.648-16.38,9.826-16.455,19.444c-0.049,6.314,2.949,12.339,8.018,16.117L22.52,49.437z"/>
		</g>
	</g>
	<g>
		
			<rect x="2.925" y="43.342" transform="matrix(0.9002 -0.4356 0.4356 0.9002 -18.4567 8.9872)" fill="#00A99D" width="14.898" height="2.819"/>
	</g>
</g>
</svg>
