<?xml version="1.0" encoding="utf-8"?>
<!-- Generator: Adobe Illustrator 16.0.0, SVG Export Plug-In . SVG Version: 6.00 Build 0)  -->
<!DOCTYPE svg PUBLIC "-//W3C//DTD SVG 1.1//EN" "http://www.w3.org/Graphics/SVG/1.1/DTD/svg11.dtd">
<svg version="1.1" id="Слой_1" xmlns="http://www.w3.org/2000/svg" xmlns:xlink="http://www.w3.org/1999/xlink" x="0px" y="0px"
	 width="20px" height="20px" viewBox="0 0 20 20" enable-background="new 0 0 20 20" xml:space="preserve">
<path fill="#00A99D" d="M18.531,0.618c-0.047,0.233-0.234,0.398-0.364,0.609c-0.056,0.104-0.165,0.222-0.198,0.354
	c-0.281,0.409-0.624,0.725-0.764,1.229c0.107,0.177-0.175,0.235-0.21,0.352c-0.164,0.141-0.22,0.328-0.364,0.467
	c-0.032,0.083-0.08,0.201-0.137,0.294c0,0.33,0.094,0.716-0.121,0.937c0.06,0.038,0.025,0.106,0.037,0.166
	c-0.144,0.082-0.209,0.27-0.34,0.374c-0.021,0.152-0.316,0.222-0.223,0.423c-0.021,0-0.035,0.022-0.035,0.047v0.035
	c-0.045,0.046-0.082,0.152-0.166,0.21c-0.009,0.13-0.151,0.247-0.056,0.363c-0.151,0.048-0.063,0.305-0.271,0.318
	c-0.022,0.14-0.165,0.199-0.151,0.35c-0.06,0.119-0.177,0.248-0.246,0.34c-0.096,0.118-0.177,0.259-0.257,0.375
	c-0.07,0.164-0.279,0.282-0.223,0.515c-0.105,0.177-0.263,0.307-0.4,0.471c-0.037,0.14-0.163,0.199-0.198,0.35
	c-0.048,0.036-0.105,0.118-0.083,0.212c-0.011,0-0.022,0.012-0.022,0.012v0.046l-0.015-0.013c-0.033,0.036-0.081,0.095-0.068,0.164
	c-0.142,0.061-0.176,0.177-0.209,0.306l-0.021-0.012c-0.026,0.175-0.216,0.257-0.26,0.409c-0.142,0.142-0.283,0.401-0.421,0.564
	c-0.038,0.128-0.166,0.152-0.144,0.303c-0.247,0.179-0.199,0.495-0.423,0.669v0.129c-0.07-0.059-0.143-0.012-0.163,0.07l0.021,0.013
	c-0.021,0.069-0.113,0.083-0.161,0.164c-0.094,0.21-0.271,0.397-0.433,0.598c-0.085,0.177-0.153,0.317-0.317,0.433
	c-0.106,0.27-0.305,0.445-0.448,0.705c0,0.07-0.08,0.08-0.08,0.152c-0.14,0.129-0.188,0.328-0.339,0.479
	c-0.351,0.494-0.681,1.092-1.055,1.57c-0.011,0.188-0.234,0.262-0.247,0.436c-0.28,0.387-0.585,0.83-0.821,1.229
	c-0.244,0.424-0.505,0.834-0.841,1.162c-0.19,0.234-0.496,0.551-0.856,0.445c-0.05-0.072-0.118,0-0.14-0.094l-0.014,0.021
	c-0.047-0.117-0.199-0.092-0.271-0.176c-0.176-0.104-0.353-0.244-0.505-0.375c-0.033-0.174-0.268-0.279-0.246-0.49
	c-0.199-0.201-0.314-0.471-0.396-0.717c-0.094-0.105-0.084-0.268-0.13-0.408c-0.072-0.107-0.049-0.236-0.128-0.326
	c0.035-0.107-0.082-0.143-0.072-0.236c-0.163-0.293-0.175-0.598-0.324-0.895c-0.049-0.361-0.214-0.678-0.296-1.006
	c-0.085-0.164-0.104-0.387-0.211-0.549l0.036-0.025c-0.095-0.127-0.071-0.338-0.129-0.48c-0.096-0.092,0-0.234-0.08-0.339
	c-0.071-0.223-0.071-0.482-0.143-0.726c-0.106-0.363-0.116-0.811-0.271-1.103c0.057-0.188-0.116-0.235-0.071-0.412
	C2.979,10.71,2.94,10.275,2.919,9.877c0.095-0.129,0.105-0.28,0.223-0.386c0.19-0.047,0.318-0.166,0.504-0.06
	c0.246-0.058,0.388,0.095,0.538,0.257c0.213,0.377,0.479,0.728,0.622,1.127c0.083,0.046,0.06,0.176,0.142,0.234
	c0.013,0.07,0.024,0.152,0.081,0.186c-0.034,0.177,0.176,0.212,0.165,0.376c0.068,0.105,0.105,0.211,0.176,0.328
	c-0.012,0-0.022,0.012-0.036,0.012c0.048,0.118,0.142,0.21,0.142,0.339c0.096,0.062,0.058,0.166,0.14,0.202
	c0.085,0.221,0.071,0.396,0.236,0.586c0.058,0.291,0.186,0.563,0.318,0.832c0.057,0.022,0.067-0.05,0.114-0.061v-0.058l0.014,0.024
	c0.15-0.154,0.336-0.329,0.421-0.494c0.06-0.034,0.128-0.068,0.15-0.127c-0.022-0.096,0.12-0.129,0.152-0.201
	c0.05-0.151,0.235-0.13,0.248-0.281c0.69-0.82,1.335-1.618,2.063-2.449c0.022-0.058,0.069-0.095,0.118-0.131
	C9.613,9.924,9.752,9.771,9.87,9.549l0.01,0.01c0.564-0.737,1.127-1.348,1.734-2.05c0.235-0.198,0.389-0.539,0.684-0.749
	c0.094-0.13,0.223-0.305,0.325-0.424c0.61-0.632,1.207-1.299,1.84-1.946c0.012-0.067,0.142-0.093,0.188-0.138
	c0.48-0.529,1.079-1.114,1.572-1.651c0.271-0.235,0.502-0.519,0.82-0.763c0-0.047,0.079-0.036,0.091-0.082
	c0.297-0.353,0.717-0.646,1.057-0.996c0.105-0.083,0.197-0.141,0.28-0.212C18.52,0.512,18.498,0.593,18.531,0.618z"/>
</svg>
