<?xml version="1.0" encoding="utf-8"?>
<!-- Generator: Adobe Illustrator 16.0.0, SVG Export Plug-In . SVG Version: 6.00 Build 0)  -->
<!DOCTYPE svg PUBLIC "-//W3C//DTD SVG 1.1//EN" "http://www.w3.org/Graphics/SVG/1.1/DTD/svg11.dtd">
<svg version="1.1" id="Слой_1" xmlns="http://www.w3.org/2000/svg" xmlns:xlink="http://www.w3.org/1999/xlink" x="0px" y="0px"
	 width="65px" height="65px" viewBox="0 0 65 65" enable-background="new 0 0 65 65" xml:space="preserve">
<path fill="#FFFFFF" d="M56.69,4.575c-0.137,0.681-0.685,1.161-1.063,1.777C55.465,6.657,55.146,7,55.049,7.384
	c-0.82,1.193-1.821,2.116-2.229,3.587c0.313,0.518-0.511,0.687-0.613,1.027c-0.479,0.411-0.641,0.958-1.063,1.362
	c-0.095,0.243-0.234,0.587-0.399,0.858c0,0.962,0.273,2.089-0.354,2.735c0.174,0.11,0.073,0.309,0.108,0.484
	c-0.419,0.24-0.609,0.787-0.992,1.092c-0.063,0.445-0.924,0.648-0.65,1.234c-0.062,0-0.102,0.066-0.102,0.138v0.102
	c-0.131,0.135-0.24,0.443-0.484,0.614c-0.026,0.379-0.442,0.72-0.163,1.059c-0.441,0.141-0.183,0.891-0.792,0.928
	c-0.066,0.409-0.482,0.58-0.441,1.021c-0.174,0.348-0.517,0.722-0.719,0.993c-0.279,0.345-0.516,0.755-0.75,1.096
	c-0.205,0.479-0.814,0.822-0.649,1.503c-0.308,0.516-0.767,0.895-1.169,1.373c-0.107,0.408-0.476,0.58-0.578,1.022
	c-0.141,0.104-0.308,0.345-0.242,0.618c-0.031,0-0.065,0.035-0.065,0.035v0.136l-0.043-0.036c-0.097,0.104-0.237,0.275-0.2,0.477
	c-0.412,0.178-0.513,0.518-0.609,0.893l-0.063-0.035c-0.078,0.512-0.63,0.752-0.758,1.195c-0.414,0.414-0.827,1.17-1.229,1.646
	c-0.111,0.375-0.485,0.442-0.42,0.886c-0.721,0.52-0.581,1.443-1.233,1.953v0.376c-0.205-0.174-0.417-0.034-0.476,0.204l0.059,0.037
	c-0.059,0.202-0.33,0.244-0.47,0.479c-0.273,0.614-0.79,1.162-1.263,1.744c-0.248,0.515-0.447,0.926-0.926,1.262
	c-0.312,0.787-0.89,1.299-1.309,2.059c0,0.204-0.234,0.234-0.234,0.443c-0.407,0.377-0.547,0.959-0.988,1.396
	c-1.023,1.443-1.986,3.189-3.078,4.588c-0.031,0.547-0.684,0.76-0.721,1.27c-0.818,1.126-1.707,2.424-2.397,3.586
	c-0.712,1.233-1.474,2.431-2.454,3.393c-0.556,0.682-1.448,1.604-2.5,1.295c-0.145-0.209-0.344,0-0.407-0.269l-0.04,0.06
	c-0.137-0.34-0.581-0.267-0.789-0.51c-0.514-0.305-1.029-0.715-1.474-1.095c-0.097-0.511-0.78-0.817-0.718-1.435
	c-0.582-0.584-0.918-1.37-1.158-2.09c-0.273-0.307-0.244-0.783-0.379-1.193c-0.21-0.311-0.142-0.686-0.373-0.953
	c0.103-0.313-0.239-0.414-0.211-0.688c-0.476-0.856-0.51-1.746-0.946-2.608c-0.143-1.058-0.624-1.978-0.863-2.936
	c-0.248-0.479-0.306-1.128-0.616-1.604l0.105-0.071c-0.275-0.375-0.207-0.987-0.376-1.405c-0.279-0.27,0-0.684-0.233-0.988
	c-0.209-0.65-0.209-1.408-0.416-2.119c-0.311-1.061-0.34-2.365-0.789-3.217c0.164-0.549-0.34-0.689-0.209-1.203
	c-0.196-1.156-0.311-2.426-0.373-3.588c0.276-0.378,0.309-0.818,0.65-1.128c0.555-0.138,0.928-0.483,1.471-0.175
	c0.718-0.17,1.131,0.276,1.57,0.751c0.621,1.101,1.399,2.124,1.814,3.29c0.242,0.136,0.174,0.514,0.414,0.685
	c0.037,0.205,0.071,0.444,0.236,0.542c-0.1,0.517,0.513,0.617,0.481,1.097c0.2,0.31,0.308,0.616,0.513,0.959
	c-0.033,0-0.064,0.031-0.105,0.031c0.141,0.347,0.414,0.614,0.414,0.991c0.279,0.178,0.168,0.484,0.407,0.59
	c0.248,0.645,0.208,1.158,0.69,1.71c0.168,0.849,0.541,1.643,0.928,2.43c0.166,0.063,0.197-0.147,0.334-0.18v-0.167l0.04,0.07
	c0.439-0.449,0.98-0.959,1.229-1.439c0.174-0.102,0.374-0.201,0.439-0.373c-0.065-0.277,0.351-0.377,0.444-0.586
	c0.145-0.441,0.687-0.379,0.724-0.82c2.015-2.395,3.896-4.723,6.02-7.148c0.065-0.167,0.202-0.275,0.345-0.381
	c0.479-0.611,0.884-1.059,1.229-1.705l0.029,0.03c1.646-2.15,3.289-3.933,5.061-5.984c0.688-0.579,1.135-1.573,1.996-2.186
	c0.273-0.379,0.649-0.889,0.949-1.237c1.781-1.845,3.522-3.791,5.369-5.68c0.034-0.197,0.414-0.271,0.551-0.403
	c1.402-1.544,3.148-3.252,4.588-4.82c0.79-0.685,1.465-1.515,2.395-2.227c0-0.138,0.23-0.104,0.265-0.239
	c0.866-1.029,2.093-1.886,3.084-2.907c0.308-0.241,0.575-0.412,0.818-0.62C56.656,4.264,56.594,4.502,56.69,4.575z"/>
</svg>
