<?xml version="1.0" encoding="utf-8"?>
<!-- Generator: Adobe Illustrator 16.0.0, SVG Export Plug-In . SVG Version: 6.00 Build 0)  -->
<!DOCTYPE svg PUBLIC "-//W3C//DTD SVG 1.1//EN" "http://www.w3.org/Graphics/SVG/1.1/DTD/svg11.dtd">
<svg version="1.1" id="Слой_1" xmlns="http://www.w3.org/2000/svg" xmlns:xlink="http://www.w3.org/1999/xlink" x="0px" y="0px"
	 width="15px" height="20px" viewBox="0 0 15 20" enable-background="new 0 0 15 20" xml:space="preserve">
<g>
	<path d="M6.133,6.744c0,0.075-0.094,0.174-0.28,0.299C5.827,7.067,5.716,7.099,5.518,7.135C5.319,7.173,5.121,7.191,4.922,7.191
		c-0.012,0-0.091-0.006-0.232-0.019C4.546,7.161,4.438,7.135,4.365,7.099c-0.015,0.05-0.02,0.137-0.02,0.26
		c0,0.41,0.075,0.943,0.223,1.601c0.15,0.659,0.341,1.316,0.577,1.974c0.285,0.757,0.593,1.404,0.923,1.937
		c0.328,0.533,0.66,0.893,0.995,1.079c0.124,0.025,0.229,0.038,0.317,0.038c0.161-0.013,0.325-0.025,0.494-0.038
		c0.167-0.013,0.326-0.019,0.474-0.019c0.125,0,0.217,0.006,0.279,0.019s0.105,0.025,0.131,0.038l2.811,3.965
		c0.025,0.051,0.014,0.121-0.037,0.215c-0.049,0.093-0.086,0.146-0.111,0.158c-0.348,0.148-0.67,0.252-0.969,0.308
		c-0.297,0.056-0.65,0.083-1.061,0.083c-0.535,0-0.955-0.068-1.266-0.205c-1.391-0.682-2.526-1.557-3.407-2.625
		c-0.734-0.881-1.36-1.985-1.883-3.314c-0.321-0.819-0.569-1.707-0.744-2.662c-0.174-0.956-0.26-1.999-0.26-3.128
		c0-0.36,0.023-0.895,0.073-1.602c0.049-0.708,0.087-1.16,0.113-1.359c0.024-0.199,0.313-0.528,0.864-0.987
		c0.552-0.459,0.935-0.72,1.146-0.782c0.584-0.224,0.925-0.335,1.023-0.335c0.074,0,0.13,0.043,0.168,0.13L6.133,6.744z
		 M4.605,6.726C4.246,6.651,3.972,6.584,3.787,6.521C3.6,6.458,3.444,6.378,3.32,6.279c0.014,0.174,0.143,0.317,0.392,0.429
		c0.162,0.075,0.384,0.136,0.67,0.186c0.223,0.062,0.471,0.093,0.744,0.093c0.175,0,0.321-0.012,0.439-0.037
		C5.683,6.924,5.76,6.888,5.797,6.838C5.364,6.838,4.966,6.8,4.605,6.726z M4.512,14.695c0.485,0.708,1.006,1.297,1.566,1.77
		c-0.076-0.236-0.149-0.479-0.225-0.727c-0.311-0.261-0.696-0.714-1.155-1.359c-0.372-0.547-0.745-1.092-1.117-1.639
		c-0.063-0.074-0.137-0.1-0.223-0.074C3.705,13.398,4.09,14.074,4.512,14.695z M5.443,1.904c0-0.125,0.087-0.174,0.26-0.149
		l1.584,0.261c0.11,0.049,0.179,0.124,0.204,0.223l0.54,3.893c0.023,0.186-0.062,0.316-0.26,0.391L6.448,6.894L5.443,1.904z
		 M7.156,5.292c0.236-0.037,0.372-0.092,0.41-0.167L7.548,4.883C7.484,4.957,7.386,5.001,7.25,5.013S6.883,5.032,6.561,5.032H6.318
		l0.056,0.316C6.659,5.348,6.921,5.329,7.156,5.292z M7.018,5.981c0.329-0.087,0.504-0.155,0.53-0.205l0.074-0.131L7.603,5.274
		C7.541,5.336,7.402,5.392,7.185,5.441S6.777,5.516,6.616,5.516c-0.124,0-0.199-0.019-0.223-0.056l0.112,0.577
		C6.517,6.087,6.688,6.068,7.018,5.981z M7.566,14.844c0.063-0.086,0.161-0.223,0.297-0.408c-0.148,0.023-0.289,0.102-0.419,0.232
		c-0.13,0.131-0.25,0.338-0.363,0.623c-0.037,0.112-0.057,0.254-0.057,0.429c0,0.249,0.038,0.506,0.113,0.772
		c0.073,0.268,0.154,0.438,0.242,0.512c-0.025-0.086-0.05-0.229-0.074-0.428c-0.026-0.199-0.038-0.379-0.038-0.541
		c0-0.123,0.005-0.25,0.02-0.381c0.012-0.131,0.031-0.232,0.054-0.307C7.392,15.162,7.467,14.992,7.566,14.844z M9.455,13.252
		c0.393-0.217,0.631-0.295,0.719-0.232l2.902,3.854c0.1,0.099,0.119,0.18,0.057,0.242c-0.162,0.311-0.473,0.595-0.932,0.856
		c-0.025,0.012-0.072,0.012-0.139,0c-0.068-0.012-0.115-0.037-0.139-0.074l-2.998-4.153C8.887,13.635,9.064,13.469,9.455,13.252z
		 M9.484,14.192c0.248-0.161,0.416-0.267,0.502-0.316c0.174-0.099,0.293-0.142,0.354-0.131l-0.205-0.278
		c-0.063,0-0.148,0.031-0.26,0.093c-0.199,0.137-0.398,0.267-0.596,0.391L9.484,14.192z M11.494,16.967l0.949-0.651l-0.334-0.354
		l-0.932,0.634L11.494,16.967z M12.463,17.339c-0.074,0.063-0.223,0.175-0.447,0.336c0.014-0.062,0.031-0.124,0.057-0.187
		c0.248-0.198,0.496-0.403,0.744-0.614C12.791,17.023,12.674,17.178,12.463,17.339z"/>
</g>
</svg>
