<?xml version="1.0" encoding="utf-8"?>
<!-- Generator: Adobe Illustrator 16.0.0, SVG Export Plug-In . SVG Version: 6.00 Build 0)  -->
<!DOCTYPE svg PUBLIC "-//W3C//DTD SVG 1.1//EN" "http://www.w3.org/Graphics/SVG/1.1/DTD/svg11.dtd">
<svg version="1.1" id="Слой_1" xmlns="http://www.w3.org/2000/svg" xmlns:xlink="http://www.w3.org/1999/xlink" x="0px" y="0px"
	 width="15px" height="15px" viewBox="0 0 15 15" enable-background="new 0 0 15 15" xml:space="preserve">
<g>
	<g>
		<g>
			<g>
				<g>
					<g>
						<path fill="#666666" d="M13.357,12.752L9.064,8.458L9.05,8.468c0.774-0.797,1.252-1.881,1.252-3.08
							c0-2.441-1.977-4.419-4.418-4.419S1.466,2.947,1.466,5.388c0,2.44,1.977,4.419,4.418,4.419c0.812,0,1.568-0.222,2.221-0.603
							l4.4,4.398c0.234,0.236,0.617,0.236,0.853,0C13.593,13.368,13.593,12.987,13.357,12.752z M2.505,5.388
							c0-1.866,1.513-3.379,3.379-3.379s3.381,1.513,3.381,3.379c0,1.867-1.515,3.379-3.381,3.379S2.505,7.255,2.505,5.388z"/>
					</g>
				</g>
			</g>
		</g>
	</g>
</g>
</svg>
